# xmcd
#
# Track frame offsets:
#  150
#  17550
#  33742
#  48857
#  61930
#  83887
#  95977
#  111025
#  141985
#  164867
#  181902
#  196577
#  208050
#
# Disc length: 2965 seconds
#
# Revision: 6
# Processed by: cddbd v1.5.1PL2 Copyright (c) Steve Scherf et al.
# Submitted via: Collectorz.com_Music_Collector 6.11
#
DISCID=b70b930d
DTITLE=Antonio Carlos Jobim - Quiet Now - Nights Of Quiet Stars
DYEAR=1999
DGENRE=Jazz
TTITLE0=Corcovado (Quiet Nights Of Quiet Stars)
TTITLE1=Amor Em Paz (Once I Loved)
TTITLE2=Insensatez (How Insensitive)
TTITLE3=Vivo Sonhando (Dreamer)
TTITLE4=Desafinado
TTITLE5=Dindi
TTITLE6=Chansong
TTITLE7=O Morrow Nao Tem Vez
TTITLE8=Para Machuchar Meu Coração
TTITLE9=Anos Dourados (Looks Like December)
TTITLE10=Meditation
TTITLE11=Luiza
TTITLE12=Inútil Paisagem (Useless Landscape)
EXTD=
EXTT0=
EXTT1=
EXTT2=
EXTT3=
EXTT4=
EXTT5=
EXTT6=
EXTT7=
EXTT8=
EXTT9=
EXTT10=
EXTT11=
EXTT12=
PLAYORDER=
